<?xml version="1.0" ?>
<!-- Uploaded to: SVG Repo, www.svgrepo.com, Generator: SVG Repo Mixer Tools -->
<svg width="800px" height="800px" viewBox="0 0 64 64" version="1.1" xml:space="preserve" xmlns="http://www.w3.org/2000/svg" xmlns:xlink="http://www.w3.org/1999/xlink">
<style type="text/css">
	.st0{fill:none;stroke:#EDEDED;stroke-width:0.25;stroke-miterlimit:10;}
	.st1{fill:none;stroke:#BDBDBD;stroke-width:0.25;stroke-miterlimit:10;}
	.st2{fill:none;stroke:#000000;stroke-width:2;stroke-miterlimit:10;}
	.st3{fill:#35C6F4;}
	.st4{fill:#EA386E;}
	.st5{fill:#7065AD;}
	.st6{fill:#FDBE57;}
	.st7{fill:#7BC89C;}
	.st8{fill:#FDD304;}
	.st9{fill:#27255F;}
	.st10{fill:#00AEEF;}
</style>
<g id="Layer_1"/>
<g id="Layer_2">
<g>
<path d="M51.4,50l-3-3c4.1-4.5,6.6-10.4,6.6-17C55,16.2,43.8,5,30,5C16.2,5,5,16.2,5,30c0,13.8,11.2,25,25,25    c6.5,0,12.5-2.5,17-6.6l3,3V58h2v-6h6v-2H51.4z M42.7,41.3c2.7-3,4.3-6.9,4.3-11.3c0-9.4-7.6-17-17-17c-9.4,0-17,7.6-17,17    c0,9.4,7.6,17,17,17c4.3,0,8.3-1.6,11.3-4.3l4.3,4.3c-4.1,3.8-9.5,6-15.5,6c-6.4,0-12.1-2.6-16.3-6.7C9.6,42.1,7,36.4,7,30    c0-6.4,2.6-12.1,6.7-16.3C17.9,9.6,23.6,7,30,7c6.4,0,12.1,2.6,16.3,6.7C50.4,17.9,53,23.6,53,30c0,6-2.3,11.4-6,15.5L42.7,41.3z     M30,22c-4.4,0-8,3.6-8,8c0,4.4,3.6,8,8,8c1.8,0,3.5-0.6,4.9-1.7l5,5C37.2,43.6,33.8,45,30,45c-4.1,0-7.9-1.7-10.6-4.4    C16.7,37.9,15,34.1,15,30c0-4.1,1.7-7.9,4.4-10.6C22.1,16.7,25.9,15,30,15c4.1,0,7.9,1.7,10.6,4.4C43.3,22.1,45,25.9,45,30    c0,3.8-1.4,7.2-3.7,9.9l-5-5c1.1-1.4,1.7-3.1,1.7-4.9C38,25.6,34.4,22,30,22z M33.5,34.9c-1,0.7-2.2,1.1-3.5,1.1    c-1.7,0-3.2-0.7-4.2-1.8C24.7,33.2,24,31.7,24,30c0-1.7,0.7-3.2,1.8-4.2c1.1-1.1,2.6-1.8,4.2-1.8c1.7,0,3.2,0.7,4.2,1.8    c1.1,1.1,1.8,2.6,1.8,4.2c0,1.3-0.4,2.5-1.1,3.5l-4.2-4.2l-1.4,1.4L33.5,34.9z"/>
</g>
</g>
</svg>