<?xml version="1.0" ?>
<!-- Uploaded to: SVG Repo, www.svgrepo.com, Generator: SVG Repo Mixer Tools -->
<svg width="800px" height="800px" viewBox="0 0 64 64" version="1.1" xml:space="preserve" xmlns="http://www.w3.org/2000/svg" xmlns:xlink="http://www.w3.org/1999/xlink">
<style type="text/css">
	.st0{fill:none;stroke:#EDEDED;stroke-width:0.25;stroke-miterlimit:10;}
	.st1{fill:none;stroke:#BDBDBD;stroke-width:0.25;stroke-miterlimit:10;}
	.st2{fill:none;stroke:#000000;stroke-width:2;stroke-miterlimit:10;}
	.st3{fill:#35C6F4;}
	.st4{fill:#EA386E;}
	.st5{fill:#7065AD;}
	.st6{fill:#FDBE57;}
	.st7{fill:#7BC89C;}
	.st8{fill:#FDD304;}
	.st9{fill:#27255F;}
	.st10{fill:#00AEEF;}
</style>
<g id="Layer_1"/>
<g id="Layer_2">
<g>
<path d="M26.5,16.7c-2.6,0-5.3,1-7.3,3c-2,2-3,4.6-3,7.3c0,2.6,1,5.3,3,7.3c2,2,4.6,3,7.3,3c2.6,0,5.3-1,7.3-3c2-2,3-4.6,3-7.3    c0-2.6-1-5.3-3-7.3C31.7,17.8,29.1,16.7,26.5,16.7z M26.5,35.3c-2.1,0-4.2-0.8-5.9-2.4c-1.6-1.6-2.4-3.7-2.4-5.9    c0-2.1,0.8-4.2,2.4-5.9c1.6-1.6,3.7-2.4,5.9-2.4c2.1,0,4.2,0.8,5.9,2.4h-6.9v10.8h7.7c-0.2,0.3-0.5,0.7-0.8,1    C30.7,34.5,28.6,35.3,26.5,35.3z M34.2,29.9h-6.8v-6.8h6.3c0.6,1.2,1,2.5,1,3.9C34.8,28,34.6,29,34.2,29.9z"/>
<path d="M38.5,21.2c-0.6-1.3-1.5-2.5-2.6-3.6c-2.6-2.6-6-3.9-9.5-3.9c-3.4,0-6.9,1.3-9.5,3.9c-2.6,2.6-3.9,6-3.9,9.5    c0,2.6,0.8,5.2,2.3,7.5L3.1,46.7l3.6,3.6l0.7-0.7L19,38.1c2.3,1.5,4.9,2.3,7.5,2.3c3.4,0,6.9-1.3,9.5-3.9c1.3-1.3,2.3-2.9,3-4.6    h21.9V21.2H38.5z M17.4,36.9L6.8,47.5L6,46.7l10.6-10.6L17.4,36.9z M34.5,35.1c-2.2,2.2-5.1,3.3-8.1,3.3c-2.9,0-5.8-1.1-8.1-3.3    c-2.2-2.2-3.3-5.1-3.3-8.1c0-2.9,1.1-5.8,3.3-8.1c2.2-2.2,5.1-3.3,8.1-3.3c2.9,0,5.8,1.1,8.1,3.3c2.2,2.2,3.3,5.1,3.3,8.1    C37.8,30,36.7,32.9,34.5,35.1z M58.9,29.9H39.5c0.2-1,0.3-1.9,0.3-2.9c0-1.3-0.2-2.6-0.6-3.9h19.6V29.9z"/>
<rect height="2" width="12.2" x="38.9" y="33.3"/>
</g>
</g>
</svg>